{
  "images": [
    {
      "uri": "textures/catcolor.png"
    }
  ],
  "accessors": [
    {
      "bufferView": 1,
      "componentType": 5126,
      "count": 1979,
      "max": [
        3.1225340366363525,
        2.679208993911743,
        4.289690017700195
      ],
      "min": [
        -5.704816818237305,
        -2.893949031829834,
        -0.11290299892425537
      ],
      "type": "VEC3"
    },
    {
      "bufferView": 1,
      "byteOffset": 23748,
      "componentType": 5126,
      "count": 1979,
      "max": [
        0.9991058111190796,
        0.9992827773094177,
        0.9997186660766602
      ],
      "min": [
        -0.9972792267799377,
        -0.9987239241600037,
        -0.9997090697288513
      ],
      "type": "VEC3"
    },
    {
      "bufferView": 0,
      "componentType": 5125,
      "count": 10848,
      "type": "SCALAR"
    }
  ],
  "asset": {
    "extras": {
      "author": "pondowolimo (https://sketchfab.com/pondowolimo)",
      "license": "CC-BY-4.0 (http://creativecommons.org/licenses/by/4.0/)",
      "source": "https://sketchfab.com/3d-models/cat-ba98210536b049bda7cc74a3da01e1dc",
      "title": "Cat"
    },
    "generator": "Sketchfab-13.83.0",
    "version": "2.0"
  },
  "bufferViews": [
    {
      "buffer": 0,
      "byteLength": 43392,
      "name": "floatBufferViews",
      "target": 34963
    },
    {
      "buffer": 0,
      "byteLength": 47496,
      "byteOffset": 43392,
      "byteStride": 12,
      "name": "floatBufferViews",
      "target": 34962
    }
  ],
  "buffers": [
    {
      "byteLength": 90888,
      "uri": "scene.bin"
    }
  ],
  "materials": [
    {
      "doubleSided": true,
      "name": "Material",
      "pbrMetallicRoughness": {
        "baseColorFactor": [0.9647, 0.9647, 0.8627, 1.0], 
        "metallicFactor": 0.0,
        "roughnessFactor": 0.6
      }
    }
  ],
  "meshes": [
    {
      "name": "Object_0",
      "primitives": [
        {
          "attributes": {
            "NORMAL": 1,
            "POSITION": 0
          },
          "indices": 2,
          "material": 0,
          "mode": 4
        }
      ]
    }
  ],
  "nodes": [
    {
      "children": [
        1
      ],
      "matrix": [
        1.0,
        0.0,
        0.0,
        0.0,
        0.0,
        2.220446049250313e-16,
        -1.0,
        0.0,
        0.0,
        1.0,
        2.220446049250313e-16,
        0.0,
        0.0,
        0.0,
        0.0,
        1.0
      ],
      "name": "Sketchfab_model"
    },
    {
      "children": [
        2
      ],
      "name": "9e5d52c5bf7f44e49a5dc53566bb5021.obj.cleaner.materialmerger.gles"
    },
    {
      "mesh": 0,
      "name": "Object_2"
    }
  ],
  "scene": 0,
  "scenes": [
    {
      "name": "Sketchfab_Scene",
      "nodes": [
        0
      ]
    }
  ]
}
