<svg xmlns="http://www.w3.org/2000/svg" version="1.1" xmlns:xlink="http://www.w3.org/1999/xlink" xmlns:svgjs="http://svgjs.dev/svgjs" width="1500" height="1500" viewBox="0 0 1500 1500"><rect width="1500" height="1500" fill="#2b253e"></rect><g transform="matrix(0.4158004158004158,0,0,0.4158004158004158,438.9067909476073,250.40485829959516)"><svg viewBox="0 0 154 247" data-background-color="#2b253e" preserveAspectRatio="xMidYMid meet" height="2405" width="1500" xmlns="http://www.w3.org/2000/svg" xmlns:xlink="http://www.w3.org/1999/xlink"><g id="tight-bounds" transform="matrix(1,0,0,1,-0.18693877551021387,-0.09999999999999432)"><svg viewBox="0 0 154.37387755102043 247.2" height="247.2" width="154.37387755102043"><g><svg viewBox="0 0 154.37387755102043 247.2" height="247.2" width="154.37387755102043"><g><svg viewBox="0 0 154.37387755102043 247.2" height="247.2" width="154.37387755102043"><g id="textblocktransform"><svg viewBox="0 0 154.37387755102043 247.2" height="247.2" width="154.37387755102043" id="textblock"><g><svg viewBox="0 0 154.37387755102043 247.2" height="247.2" width="154.37387755102043"><g transform="matrix(1,0,0,1,0,0)"><svg width="154.37387755102043" viewBox="4 -36.3 22.95 36.75" height="247.2" data-palette-color="#aaa9bd"><g class="wordmark-text-0" data-fill-palette-color="primary" id="text-0"><path d="M4-36.3L7-36.3 7-20.75Q8.2-23.05 10.33-24.33 12.45-25.6 15-25.6L15-25.6Q18.35-25.6 20.53-23.45 22.7-21.3 22.7-17.95L22.7-17.95Q22.7-15.25 21.33-13.4 19.95-11.55 18-10.75L18-10.75 22.5-3.2Q22.95-2.35 23.8-2.35L23.8-2.35Q24.45-2.35 24.8-2.85L24.8-2.85 26.95-1.15Q25.65 0.45 23.8 0.45L23.8 0.45Q22.6 0.45 21.53-0.1 20.45-0.65 19.85-1.7L19.85-1.7 15.1-9.95 7-9.95 7 0 4 0 4-36.3ZM12.75-12.75Q15-12.75 16.55-13.4L16.55-13.4Q19.85-14.8 19.85-18.05L19.85-18.05Q19.85-20.15 18.48-21.48 17.1-22.8 14.75-22.8L14.75-22.8Q12.2-22.8 10.4-21.15 8.6-19.5 7.65-16.35L7.65-16.35Q7.15-14.7 7.1-12.75L7.1-12.75 12.75-12.75Z" fill="#aaa9bd" data-fill-palette-color="primary"></path></g></svg></g></svg></g></svg></g></svg></g></svg></g><defs></defs></svg><rect width="154.37387755102043" height="247.2" fill="none" stroke="none" visibility="hidden"></rect></g></svg></g></svg>